<mxfile host="app.diagrams.net" modified="2024-07-15T13:52:04.993Z" agent="Mozilla/5.0 (Windows NT 10.0; Win64; x64) AppleWebKit/537.36 (KHTML, like Gecko) Chrome/120.0.0.0 Safari/537.36" etag="XaMvS9qPO9UlDyKzX-a-" version="24.6.5" type="github">
  <diagram name="第 1 页" id="Cua0tOu4Cf0W4dMML8fZ">
    <mxGraphModel dx="2261" dy="738" grid="1" gridSize="10" guides="1" tooltips="1" connect="1" arrows="1" fold="1" page="1" pageScale="1" pageWidth="827" pageHeight="1169" math="0" shadow="0">
      <root>
        <mxCell id="0" />
        <mxCell id="1" parent="0" />
        <mxCell id="aDqdlJVNoyXpXk1dktbE-48" value="" style="rounded=1;whiteSpace=wrap;html=1;dashed=1;dashPattern=12 12;sketch=1;curveFitting=1;jiggle=2;fillColor=none;strokeColor=#d79b00;" vertex="1" parent="1">
          <mxGeometry x="414" y="910" width="1116" height="720" as="geometry" />
        </mxCell>
        <mxCell id="aDqdlJVNoyXpXk1dktbE-70" style="edgeStyle=orthogonalEdgeStyle;rounded=0;orthogonalLoop=1;jettySize=auto;html=1;exitX=0.5;exitY=1;exitDx=0;exitDy=0;entryX=0.5;entryY=0;entryDx=0;entryDy=0;sketch=1;curveFitting=1;jiggle=2;" edge="1" parent="1" source="aDqdlJVNoyXpXk1dktbE-20" target="aDqdlJVNoyXpXk1dktbE-69">
          <mxGeometry relative="1" as="geometry" />
        </mxCell>
        <mxCell id="aDqdlJVNoyXpXk1dktbE-20" value="" style="rounded=1;whiteSpace=wrap;html=1;fillColor=none;dashed=1;dashPattern=8 8;sketch=1;curveFitting=1;jiggle=2;" vertex="1" parent="1">
          <mxGeometry x="1000" y="960" width="165" height="200" as="geometry" />
        </mxCell>
        <mxCell id="aDqdlJVNoyXpXk1dktbE-16" value="" style="rounded=1;whiteSpace=wrap;html=1;fillColor=none;dashed=1;dashPattern=8 8;sketch=1;curveFitting=1;jiggle=2;" vertex="1" parent="1">
          <mxGeometry x="559" y="930" width="170" height="390" as="geometry" />
        </mxCell>
        <mxCell id="aDqdlJVNoyXpXk1dktbE-5" style="edgeStyle=orthogonalEdgeStyle;rounded=0;orthogonalLoop=1;jettySize=auto;html=1;exitX=1;exitY=0.5;exitDx=0;exitDy=0;sketch=1;curveFitting=1;jiggle=2;" edge="1" parent="1" source="08J6ALbVCCQo86QGUdAH-1" target="08J6ALbVCCQo86QGUdAH-3">
          <mxGeometry relative="1" as="geometry" />
        </mxCell>
        <mxCell id="aDqdlJVNoyXpXk1dktbE-9" style="edgeStyle=orthogonalEdgeStyle;rounded=0;orthogonalLoop=1;jettySize=auto;html=1;exitX=0.5;exitY=1;exitDx=0;exitDy=0;entryX=0;entryY=1;entryDx=0;entryDy=0;curved=1;sketch=1;curveFitting=1;jiggle=2;startArrow=classic;startFill=1;fillColor=#dae8fc;strokeColor=#6c8ebf;" edge="1" parent="1" source="08J6ALbVCCQo86QGUdAH-1" target="08J6ALbVCCQo86QGUdAH-13">
          <mxGeometry relative="1" as="geometry" />
        </mxCell>
        <mxCell id="aDqdlJVNoyXpXk1dktbE-10" value="&lt;font style=&quot;background-color: rgb(251, 251, 251); font-size: 14px;&quot;&gt;2、前端请求获取一台websocket服务的IP地址，&lt;/font&gt;&lt;div style=&quot;background-color: rgb(251, 251, 251); font-size: 14px;&quot;&gt;建立websocket连接，进行双向交互&lt;/div&gt;" style="edgeLabel;html=1;align=center;verticalAlign=middle;resizable=0;points=[];" vertex="1" connectable="0" parent="aDqdlJVNoyXpXk1dktbE-9">
          <mxGeometry x="0.0463" y="18" relative="1" as="geometry">
            <mxPoint x="-15" y="-22" as="offset" />
          </mxGeometry>
        </mxCell>
        <mxCell id="08J6ALbVCCQo86QGUdAH-1" value="&lt;font style=&quot;font-size: 14px;&quot;&gt;前端页面（用户）&lt;/font&gt;" style="rounded=1;whiteSpace=wrap;html=1;strokeWidth=2;fillWeight=4;hachureGap=8;hachureAngle=45;fillColor=#d5e8d4;sketch=1;strokeColor=#82b366;" parent="1" vertex="1">
          <mxGeometry x="-80" y="680" width="120" height="60" as="geometry" />
        </mxCell>
        <mxCell id="aDqdlJVNoyXpXk1dktbE-7" style="edgeStyle=orthogonalEdgeStyle;rounded=0;orthogonalLoop=1;jettySize=auto;html=1;exitX=1;exitY=0.5;exitDx=0;exitDy=0;entryX=0;entryY=0.5;entryDx=0;entryDy=0;curved=1;sketch=1;curveFitting=1;jiggle=2;flowAnimation=0;shadow=0;" edge="1" parent="1" source="08J6ALbVCCQo86QGUdAH-2" target="08J6ALbVCCQo86QGUdAH-13">
          <mxGeometry relative="1" as="geometry" />
        </mxCell>
        <mxCell id="aDqdlJVNoyXpXk1dktbE-8" value="&lt;font style=&quot;font-size: 14px;&quot;&gt;1、请求websocket服务，返回被请求服务的ip地址&lt;/font&gt;&lt;div style=&quot;font-size: 14px;&quot;&gt;&lt;font style=&quot;font-size: 14px;&quot;&gt;经过负载均衡，网关会把该请求发送给一个websocket服务&lt;/font&gt;&lt;/div&gt;&lt;div style=&quot;font-size: 14px;&quot;&gt;&lt;font style=&quot;font-size: 14px;&quot;&gt;&lt;br&gt;&lt;/font&gt;&lt;/div&gt;&lt;div style=&quot;font-size: 14px;&quot;&gt;&lt;font style=&quot;font-size: 14px;&quot;&gt;返回服务ip地址后，前端页面直接与其建立websocket连接&lt;/font&gt;&lt;/div&gt;" style="edgeLabel;html=1;align=center;verticalAlign=middle;resizable=0;points=[];" vertex="1" connectable="0" parent="aDqdlJVNoyXpXk1dktbE-7">
          <mxGeometry x="-0.1333" y="-1" relative="1" as="geometry">
            <mxPoint y="24" as="offset" />
          </mxGeometry>
        </mxCell>
        <mxCell id="08J6ALbVCCQo86QGUdAH-2" value="&lt;font style=&quot;font-size: 14px;&quot;&gt;网关 gateway&lt;/font&gt;" style="rounded=1;whiteSpace=wrap;html=1;strokeWidth=2;fillWeight=4;hachureGap=8;hachureAngle=45;fillColor=#fff2cc;sketch=1;strokeColor=#d6b656;glass=0;" parent="1" vertex="1">
          <mxGeometry x="260" y="680" width="120" height="60" as="geometry" />
        </mxCell>
        <mxCell id="aDqdlJVNoyXpXk1dktbE-6" style="edgeStyle=orthogonalEdgeStyle;rounded=0;orthogonalLoop=1;jettySize=auto;html=1;exitX=1;exitY=0.5;exitDx=0;exitDy=0;entryX=0;entryY=0.5;entryDx=0;entryDy=0;sketch=1;curveFitting=1;jiggle=2;" edge="1" parent="1" source="08J6ALbVCCQo86QGUdAH-3" target="08J6ALbVCCQo86QGUdAH-2">
          <mxGeometry relative="1" as="geometry" />
        </mxCell>
        <mxCell id="08J6ALbVCCQo86QGUdAH-3" value="&lt;font style=&quot;font-size: 15px;&quot;&gt;nginx反向代理&lt;/font&gt;" style="ellipse;whiteSpace=wrap;html=1;strokeWidth=2;fillWeight=2;hachureGap=8;fillColor=#ffe6cc;fillStyle=dots;sketch=1;strokeColor=#d79b00;" parent="1" vertex="1">
          <mxGeometry x="82" y="680" width="120" height="60" as="geometry" />
        </mxCell>
        <mxCell id="08J6ALbVCCQo86QGUdAH-7" value="" style="endArrow=none;dashed=1;html=1;dashPattern=1 3;strokeWidth=2;rounded=0;sketch=1;curveFitting=1;jiggle=2;" parent="1" edge="1">
          <mxGeometry width="50" height="50" relative="1" as="geometry">
            <mxPoint x="219.5" y="938" as="sourcePoint" />
            <mxPoint x="219.5" y="478" as="targetPoint" />
          </mxGeometry>
        </mxCell>
        <mxCell id="08J6ALbVCCQo86QGUdAH-8" value="&lt;font style=&quot;font-size: 14px;&quot;&gt;后端服务&lt;/font&gt;" style="text;html=1;align=center;verticalAlign=middle;resizable=0;points=[];autosize=1;strokeColor=none;fillColor=none;" parent="1" vertex="1">
          <mxGeometry x="225" y="478" width="80" height="30" as="geometry" />
        </mxCell>
        <mxCell id="08J6ALbVCCQo86QGUdAH-9" value="&lt;font style=&quot;font-size: 14px;&quot;&gt;把请求转发到各微服务，&lt;/font&gt;&lt;div style=&quot;font-size: 14px;&quot;&gt;&lt;font style=&quot;font-size: 14px;&quot;&gt;负载均衡&lt;/font&gt;&lt;/div&gt;" style="text;html=1;align=center;verticalAlign=middle;resizable=0;points=[];autosize=1;strokeColor=none;fillColor=none;" parent="1" vertex="1">
          <mxGeometry x="234" y="740" width="180" height="50" as="geometry" />
        </mxCell>
        <mxCell id="08J6ALbVCCQo86QGUdAH-10" value="&lt;font style=&quot;font-size: 14px;&quot;&gt;网关 gateway&lt;/font&gt;" style="rounded=1;whiteSpace=wrap;html=1;strokeWidth=2;fillWeight=4;hachureGap=8;hachureAngle=45;fillColor=#dae8fc;sketch=1;strokeColor=#6c8ebf;" parent="1" vertex="1">
          <mxGeometry x="530" y="400" width="120" height="60" as="geometry" />
        </mxCell>
        <mxCell id="08J6ALbVCCQo86QGUdAH-11" value="&lt;font style=&quot;font-size: 14px;&quot;&gt;网关 gateway&lt;/font&gt;" style="rounded=1;whiteSpace=wrap;html=1;strokeWidth=2;fillWeight=4;hachureGap=8;hachureAngle=45;fillColor=#f8cecc;sketch=1;strokeColor=#b85450;" parent="1" vertex="1">
          <mxGeometry x="550" y="508" width="120" height="60" as="geometry" />
        </mxCell>
        <mxCell id="aDqdlJVNoyXpXk1dktbE-54" style="edgeStyle=orthogonalEdgeStyle;rounded=0;orthogonalLoop=1;jettySize=auto;html=1;exitX=1;exitY=0.5;exitDx=0;exitDy=0;entryX=0.5;entryY=0;entryDx=0;entryDy=0;curved=1;sketch=1;curveFitting=1;jiggle=2;startArrow=classic;startFill=1;" edge="1" parent="1" source="08J6ALbVCCQo86QGUdAH-12" target="aDqdlJVNoyXpXk1dktbE-21">
          <mxGeometry relative="1" as="geometry" />
        </mxCell>
        <mxCell id="08J6ALbVCCQo86QGUdAH-12" value="&lt;font style=&quot;font-size: 14px;&quot;&gt;登录认证中心&lt;/font&gt;" style="rounded=1;whiteSpace=wrap;html=1;strokeWidth=2;fillWeight=4;hachureGap=8;hachureAngle=45;fillColor=#e1d5e7;sketch=1;strokeColor=#9673a6;" parent="1" vertex="1">
          <mxGeometry x="1025" y="986" width="120" height="60" as="geometry" />
        </mxCell>
        <mxCell id="08J6ALbVCCQo86QGUdAH-13" value="&lt;font style=&quot;font-size: 15px;&quot;&gt;websocket推送服务&lt;/font&gt;" style="rounded=1;whiteSpace=wrap;html=1;strokeWidth=2;fillWeight=4;hachureGap=8;hachureAngle=45;fillColor=#d5e8d4;sketch=1;strokeColor=#82b366;shadow=0;" parent="1" vertex="1">
          <mxGeometry x="590" y="980" width="120" height="60" as="geometry" />
        </mxCell>
        <mxCell id="aDqdlJVNoyXpXk1dktbE-1" value="" style="endArrow=none;dashed=1;html=1;dashPattern=1 3;strokeWidth=2;rounded=0;sketch=1;curveFitting=1;jiggle=2;" edge="1" parent="1">
          <mxGeometry width="50" height="50" relative="1" as="geometry">
            <mxPoint x="60" y="938" as="sourcePoint" />
            <mxPoint x="60" y="478" as="targetPoint" />
          </mxGeometry>
        </mxCell>
        <mxCell id="aDqdlJVNoyXpXk1dktbE-11" value="&lt;font style=&quot;font-size: 15px;&quot;&gt;websocket推送服务&lt;/font&gt;" style="rounded=1;whiteSpace=wrap;html=1;strokeWidth=2;fillWeight=4;hachureGap=8;hachureAngle=45;fillColor=#d5e8d4;sketch=1;strokeColor=#82b366;shadow=0;" vertex="1" parent="1">
          <mxGeometry x="590" y="1080" width="120" height="60" as="geometry" />
        </mxCell>
        <mxCell id="aDqdlJVNoyXpXk1dktbE-14" value="" style="endArrow=none;dashed=1;html=1;dashPattern=1 3;strokeWidth=2;rounded=0;entryX=0.5;entryY=1;entryDx=0;entryDy=0;exitX=0.5;exitY=0;exitDx=0;exitDy=0;sketch=1;curveFitting=1;jiggle=2;" edge="1" parent="1" source="aDqdlJVNoyXpXk1dktbE-11" target="08J6ALbVCCQo86QGUdAH-13">
          <mxGeometry width="50" height="50" relative="1" as="geometry">
            <mxPoint x="340" y="970" as="sourcePoint" />
            <mxPoint x="390" y="920" as="targetPoint" />
          </mxGeometry>
        </mxCell>
        <mxCell id="aDqdlJVNoyXpXk1dktbE-17" value="&lt;font style=&quot;font-size: 14px;&quot;&gt;登录认证中心&lt;/font&gt;" style="rounded=1;whiteSpace=wrap;html=1;strokeWidth=2;fillWeight=4;hachureGap=8;hachureAngle=45;fillColor=#e1d5e7;sketch=1;strokeColor=#9673a6;" vertex="1" parent="1">
          <mxGeometry x="1025" y="1080" width="120" height="60" as="geometry" />
        </mxCell>
        <mxCell id="aDqdlJVNoyXpXk1dktbE-19" value="" style="endArrow=none;dashed=1;html=1;dashPattern=1 3;strokeWidth=2;rounded=0;entryX=0.5;entryY=1;entryDx=0;entryDy=0;exitX=0.5;exitY=0;exitDx=0;exitDy=0;sketch=1;curveFitting=1;jiggle=2;" edge="1" parent="1">
          <mxGeometry width="50" height="50" relative="1" as="geometry">
            <mxPoint x="1084.5" y="1080" as="sourcePoint" />
            <mxPoint x="1084.5" y="1040" as="targetPoint" />
          </mxGeometry>
        </mxCell>
        <mxCell id="aDqdlJVNoyXpXk1dktbE-67" style="rounded=0;orthogonalLoop=1;jettySize=auto;html=1;exitX=0;exitY=0.5;exitDx=0;exitDy=0;entryX=1;entryY=0.715;entryDx=0;entryDy=0;entryPerimeter=0;sketch=1;curveFitting=1;jiggle=2;" edge="1" parent="1" source="aDqdlJVNoyXpXk1dktbE-21" target="aDqdlJVNoyXpXk1dktbE-20">
          <mxGeometry relative="1" as="geometry" />
        </mxCell>
        <mxCell id="aDqdlJVNoyXpXk1dktbE-21" value="&lt;font style=&quot;font-size: 14px;&quot;&gt;&lt;b&gt;微信开放平台&lt;/b&gt;&lt;/font&gt;" style="rounded=1;whiteSpace=wrap;html=1;strokeWidth=2;fillWeight=4;hachureGap=8;hachureAngle=45;fillColor=#d5e8d4;sketch=1;strokeColor=#82b366;gradientColor=#97d077;glass=0;shadow=0;" vertex="1" parent="1">
          <mxGeometry x="1379" y="1074" width="120" height="60" as="geometry" />
        </mxCell>
        <mxCell id="aDqdlJVNoyXpXk1dktbE-22" style="edgeStyle=orthogonalEdgeStyle;rounded=0;orthogonalLoop=1;jettySize=auto;html=1;exitX=1;exitY=0.5;exitDx=0;exitDy=0;entryX=-0.008;entryY=0.4;entryDx=0;entryDy=0;entryPerimeter=0;sketch=1;curveFitting=1;jiggle=2;startArrow=classic;startFill=1;" edge="1" parent="1" source="08J6ALbVCCQo86QGUdAH-13" target="08J6ALbVCCQo86QGUdAH-12">
          <mxGeometry relative="1" as="geometry" />
        </mxCell>
        <mxCell id="aDqdlJVNoyXpXk1dktbE-37" value="&lt;font style=&quot;font-size: 14px;&quot;&gt;维护的映射关系&lt;/font&gt;" style="rounded=0;whiteSpace=wrap;html=1;fillColor=#f5f5f5;fontColor=#333333;strokeColor=#666666;" vertex="1" parent="1">
          <mxGeometry x="567" y="1160" width="156" height="30" as="geometry" />
        </mxCell>
        <mxCell id="aDqdlJVNoyXpXk1dktbE-38" value="loginCode" style="rounded=0;whiteSpace=wrap;html=1;" vertex="1" parent="1">
          <mxGeometry x="567" y="1190" width="78" height="30" as="geometry" />
        </mxCell>
        <mxCell id="aDqdlJVNoyXpXk1dktbE-39" value="Channel" style="rounded=0;whiteSpace=wrap;html=1;" vertex="1" parent="1">
          <mxGeometry x="645" y="1190" width="78" height="30" as="geometry" />
        </mxCell>
        <mxCell id="aDqdlJVNoyXpXk1dktbE-40" value="uid" style="rounded=0;whiteSpace=wrap;html=1;" vertex="1" parent="1">
          <mxGeometry x="567" y="1220" width="78" height="30" as="geometry" />
        </mxCell>
        <mxCell id="aDqdlJVNoyXpXk1dktbE-41" value="Channel" style="rounded=0;whiteSpace=wrap;html=1;" vertex="1" parent="1">
          <mxGeometry x="645" y="1220" width="78" height="30" as="geometry" />
        </mxCell>
        <mxCell id="aDqdlJVNoyXpXk1dktbE-42" value="Channel" style="rounded=0;whiteSpace=wrap;html=1;" vertex="1" parent="1">
          <mxGeometry x="567" y="1250" width="78" height="30" as="geometry" />
        </mxCell>
        <mxCell id="aDqdlJVNoyXpXk1dktbE-43" value="uid" style="rounded=0;whiteSpace=wrap;html=1;" vertex="1" parent="1">
          <mxGeometry x="645" y="1250" width="78" height="30" as="geometry" />
        </mxCell>
        <mxCell id="aDqdlJVNoyXpXk1dktbE-46" value="&lt;span style=&quot;font-size: 14px;&quot;&gt;&lt;font style=&quot;font-size: 14px;&quot;&gt;&lt;span style=&quot;background-color: rgb(255, 217, 102);&quot;&gt;3.3&lt;/span&gt;&lt;span style=&quot;background-color: rgb(255, 255, 255);&quot;&gt; 发送生成的全局唯一loginCode，&lt;/span&gt;&lt;/font&gt;&lt;/span&gt;&lt;div style=&quot;font-size: 14px;&quot;&gt;&lt;font style=&quot;font-size: 14px;&quot;&gt;请求登录二维码&lt;/font&gt;&lt;/div&gt;" style="text;html=1;align=center;verticalAlign=middle;resizable=0;points=[];autosize=1;strokeColor=none;fillColor=none;" vertex="1" parent="1">
          <mxGeometry x="750" y="960" width="250" height="50" as="geometry" />
        </mxCell>
        <mxCell id="aDqdlJVNoyXpXk1dktbE-49" value="微信扫码登录流程" style="text;html=1;align=center;verticalAlign=middle;resizable=0;points=[];autosize=1;strokeColor=none;fillColor=none;fontStyle=2;fontSize=14;labelBackgroundColor=#FFD966;" vertex="1" parent="1">
          <mxGeometry x="850" y="895" width="140" height="30" as="geometry" />
        </mxCell>
        <mxCell id="aDqdlJVNoyXpXk1dktbE-50" value="&lt;font style=&quot;font-size: 14px;&quot;&gt;&lt;span style=&quot;background-color: rgb(255, 217, 102);&quot;&gt;3.1&lt;/span&gt; 请求登录二维码&lt;/font&gt;" style="text;html=1;align=center;verticalAlign=middle;whiteSpace=wrap;rounded=0;" vertex="1" parent="1">
          <mxGeometry x="420" y="1028" width="130" height="30" as="geometry" />
        </mxCell>
        <mxCell id="aDqdlJVNoyXpXk1dktbE-52" value="&lt;font style=&quot;font-size: 12px;&quot;&gt;&lt;span style=&quot;background-color: rgb(255, 217, 102);&quot;&gt;3.2&lt;/span&gt; 生成loginCode，并保存与Channel连接的映射关系&lt;/font&gt;" style="text;html=1;align=center;verticalAlign=middle;whiteSpace=wrap;rounded=0;" vertex="1" parent="1">
          <mxGeometry x="567" y="940" width="153" height="30" as="geometry" />
        </mxCell>
        <mxCell id="aDqdlJVNoyXpXk1dktbE-53" value="&lt;font style=&quot;font-size: 14px;&quot;&gt;&lt;span style=&quot;background-color: rgb(255, 217, 102);&quot;&gt;3.9&lt;/span&gt;&amp;nbsp;请求，通过网关选择一个服务，&lt;/font&gt;&lt;span style=&quot;font-size: 14px; background-color: initial;&quot;&gt;携带loginCode和用户openId&lt;/span&gt;" style="text;html=1;align=center;verticalAlign=middle;whiteSpace=wrap;rounded=0;" vertex="1" parent="1">
          <mxGeometry x="1165" y="1069" width="214" height="30" as="geometry" />
        </mxCell>
        <mxCell id="aDqdlJVNoyXpXk1dktbE-55" value="&lt;font style=&quot;font-size: 14px;&quot;&gt;&lt;span style=&quot;background-color: rgb(255, 217, 102);&quot;&gt;3.4&lt;/span&gt;&amp;nbsp;请求带参二维码&lt;/font&gt;" style="text;html=1;align=center;verticalAlign=middle;whiteSpace=wrap;rounded=0;" vertex="1" parent="1">
          <mxGeometry x="1230" y="986" width="130" height="30" as="geometry" />
        </mxCell>
        <mxCell id="aDqdlJVNoyXpXk1dktbE-59" value="&lt;font style=&quot;font-size: 14px;&quot;&gt;&lt;span style=&quot;background-color: rgb(255, 217, 102);&quot;&gt;3.5&lt;/span&gt;&amp;nbsp;返回二维码&lt;/font&gt;" style="text;html=1;align=center;verticalAlign=middle;whiteSpace=wrap;rounded=0;" vertex="1" parent="1">
          <mxGeometry x="1216" y="1019" width="130" height="30" as="geometry" />
        </mxCell>
        <mxCell id="aDqdlJVNoyXpXk1dktbE-60" value="&lt;font style=&quot;font-size: 14px;&quot;&gt;&lt;span style=&quot;background-color: rgb(255, 217, 102);&quot;&gt;3.6&lt;/span&gt;&amp;nbsp;返回二维码&lt;/font&gt;" style="text;html=1;align=center;verticalAlign=middle;whiteSpace=wrap;rounded=0;" vertex="1" parent="1">
          <mxGeometry x="792" y="1009" width="130" height="30" as="geometry" />
        </mxCell>
        <mxCell id="aDqdlJVNoyXpXk1dktbE-61" value="&lt;font style=&quot;font-size: 14px;&quot;&gt;&lt;span style=&quot;background-color: rgb(255, 217, 102);&quot;&gt;3.7&lt;/span&gt;&amp;nbsp;返回二维码，展示&lt;/font&gt;" style="text;html=1;align=center;verticalAlign=middle;whiteSpace=wrap;rounded=0;" vertex="1" parent="1">
          <mxGeometry x="411" y="1059" width="154" height="30" as="geometry" />
        </mxCell>
        <mxCell id="aDqdlJVNoyXpXk1dktbE-63" style="edgeStyle=orthogonalEdgeStyle;rounded=0;orthogonalLoop=1;jettySize=auto;html=1;exitX=0;exitY=0.5;exitDx=0;exitDy=0;entryX=1;entryY=0.5;entryDx=0;entryDy=0;sketch=1;curveFitting=1;jiggle=2;" edge="1" parent="1" source="aDqdlJVNoyXpXk1dktbE-62" target="aDqdlJVNoyXpXk1dktbE-21">
          <mxGeometry relative="1" as="geometry" />
        </mxCell>
        <mxCell id="aDqdlJVNoyXpXk1dktbE-62" value="&lt;font style=&quot;font-size: 17px;&quot;&gt;用户扫码&lt;/font&gt;" style="ellipse;whiteSpace=wrap;html=1;strokeWidth=2;fillWeight=2;hachureGap=8;fillColor=#f8cecc;fillStyle=dots;sketch=1;strokeColor=#b85450;" vertex="1" parent="1">
          <mxGeometry x="1560" y="1074" width="120" height="60" as="geometry" />
        </mxCell>
        <mxCell id="aDqdlJVNoyXpXk1dktbE-64" value="&lt;font style=&quot;font-size: 14px;&quot;&gt;&lt;span style=&quot;background-color: rgb(255, 217, 102);&quot;&gt;3.8&lt;/span&gt;&amp;nbsp;扫描登录二维码&lt;/font&gt;" style="text;html=1;align=center;verticalAlign=middle;whiteSpace=wrap;rounded=0;" vertex="1" parent="1">
          <mxGeometry x="1530" y="1043" width="130" height="30" as="geometry" />
        </mxCell>
        <mxCell id="aDqdlJVNoyXpXk1dktbE-72" style="edgeStyle=orthogonalEdgeStyle;rounded=0;orthogonalLoop=1;jettySize=auto;html=1;exitX=0.5;exitY=1;exitDx=0;exitDy=0;entryX=0.5;entryY=0;entryDx=0;entryDy=0;sketch=1;curveFitting=1;jiggle=2;" edge="1" parent="1" source="aDqdlJVNoyXpXk1dktbE-69" target="aDqdlJVNoyXpXk1dktbE-71">
          <mxGeometry relative="1" as="geometry" />
        </mxCell>
        <mxCell id="aDqdlJVNoyXpXk1dktbE-73" value="是" style="edgeLabel;html=1;align=center;verticalAlign=middle;resizable=0;points=[];" vertex="1" connectable="0" parent="aDqdlJVNoyXpXk1dktbE-72">
          <mxGeometry x="-0.4667" relative="1" as="geometry">
            <mxPoint as="offset" />
          </mxGeometry>
        </mxCell>
        <mxCell id="aDqdlJVNoyXpXk1dktbE-69" value="&lt;font style=&quot;font-size: 14px;&quot;&gt;&lt;span style=&quot;background-color: rgb(255, 217, 102);&quot;&gt;3.10&lt;/span&gt;&amp;nbsp;是否注册？&lt;/font&gt;" style="rhombus;whiteSpace=wrap;html=1;strokeWidth=2;fillWeight=-1;hachureGap=8;fillStyle=cross-hatch;fillColor=#f8cecc;sketch=1;strokeColor=#b85450;" vertex="1" parent="1">
          <mxGeometry x="1022.5" y="1190" width="120" height="60" as="geometry" />
        </mxCell>
        <mxCell id="aDqdlJVNoyXpXk1dktbE-71" value="&lt;font style=&quot;font-size: 13px;&quot;&gt;通过openId查询用已经注册&lt;/font&gt;" style="ellipse;whiteSpace=wrap;html=1;strokeWidth=2;fillWeight=2;hachureGap=8;fillColor=#dae8fc;fillStyle=dots;sketch=1;strokeColor=#6c8ebf;" vertex="1" parent="1">
          <mxGeometry x="1022.5" y="1280" width="120" height="60" as="geometry" />
        </mxCell>
        <mxCell id="aDqdlJVNoyXpXk1dktbE-75" style="rounded=0;orthogonalLoop=1;jettySize=auto;html=1;exitX=0;exitY=0.5;exitDx=0;exitDy=0;sketch=1;curveFitting=1;jiggle=2;dashed=1;shape=flexArrow;" edge="1" parent="1">
          <mxGeometry relative="1" as="geometry">
            <mxPoint x="1022.5" y="1310" as="sourcePoint" />
            <mxPoint x="730" y="1310" as="targetPoint" />
          </mxGeometry>
        </mxCell>
        <mxCell id="aDqdlJVNoyXpXk1dktbE-76" value="&lt;font style=&quot;font-size: 14px;&quot;&gt;&lt;b&gt;RocketMQ&lt;/b&gt;&lt;/font&gt;" style="edgeLabel;html=1;align=center;verticalAlign=middle;resizable=0;points=[];" vertex="1" connectable="0" parent="aDqdlJVNoyXpXk1dktbE-75">
          <mxGeometry x="0.0838" y="2" relative="1" as="geometry">
            <mxPoint x="16" y="-10" as="offset" />
          </mxGeometry>
        </mxCell>
        <mxCell id="aDqdlJVNoyXpXk1dktbE-77" value="&lt;span style=&quot;font-size: 14px;&quot;&gt;发送用户登录成功的消息，包含：loginCode和用户信息&lt;/span&gt;&lt;div&gt;&lt;span style=&quot;font-size: 14px;&quot;&gt;&lt;br&gt;&lt;/span&gt;&lt;/div&gt;&lt;div&gt;&lt;span style=&quot;font-size: 14px;&quot;&gt;（每个websocket服务都进行消费，根据loginCode过滤，然后删除loginCode的映射关系，并更新用户与Channel的关系）&lt;/span&gt;&lt;/div&gt;" style="text;html=1;align=center;verticalAlign=middle;whiteSpace=wrap;rounded=0;" vertex="1" parent="1">
          <mxGeometry x="760" y="1313" width="258" height="125" as="geometry" />
        </mxCell>
      </root>
    </mxGraphModel>
  </diagram>
</mxfile>
